
<svg xmlns="http://www.w3.org/2000/svg" viewBox="0 0 800 300">
<defs>
<filter id="g"><feGaussianBlur stdDeviation="2" result="b"/><feMerge><feMergeNode in="b"/><feMergeNode in="SourceGraphic"/></feMerge></filter>
<pattern id="scan" width="4" height="4" patternUnits="userSpaceOnUse"><rect width="4" height="2" fill="#0000"/><rect y="2" width="4" height="2" fill="#000" opacity=".08"/></pattern>
<g id="alien" fill="#55ff55">
<rect x="8" y="0" width="4" height="4"/><rect x="16" y="0" width="4" height="4"/>
<rect x="4" y="4" width="20" height="4"/><rect x="0" y="8" width="28" height="4"/>
<rect x="4" y="12" width="20" height="4"/><rect x="0" y="16" width="4" height="4"/><rect x="24" y="16" width="4" height="4"/>
</g>
<g id="ship" fill="#3cf">
<rect x="12" y="0" width="4" height="4"/><rect x="8" y="4" width="12" height="4"/><rect x="4" y="8" width="20" height="4"/><rect x="0" y="12" width="28" height="4"/><rect x="8" y="16" width="4" height="4"/><rect x="16" y="16" width="4" height="4"/>
</g>
<g id="boom">
<rect width="4" height="4" fill="#ff0"/><rect x="8" width="4" height="4" fill="#f80"/><rect y="8" width="4" height="4" fill="#fff"/><rect x="8" y="8" width="4" height="4" fill="#f00"/>
</g>
</defs>
<rect width="100%" height="100%" fill="#050510"/>
<g fill="#fff"><circle cx="111" cy="12" r="1"><animate attributeName="opacity" values="0.2;1;0.2" dur="2.6s" repeatCount="indefinite"/></circle><circle cx="69" cy="287" r="1"><animate attributeName="opacity" values="0.2;1;0.2" dur="3.3s" repeatCount="indefinite"/></circle><circle cx="323" cy="41" r="1"><animate attributeName="opacity" values="0.2;1;0.2" dur="3.8s" repeatCount="indefinite"/></circle><circle cx="286" cy="145" r="1"><animate attributeName="opacity" values="0.2;1;0.2" dur="3.2s" repeatCount="indefinite"/></circle><circle cx="9" cy="61" r="1"><animate attributeName="opacity" values="0.2;1;0.2" dur="3.8s" repeatCount="indefinite"/></circle><circle cx="424" cy="263" r="1"><animate attributeName="opacity" values="0.2;1;0.2" dur="4.1s" repeatCount="indefinite"/></circle><circle cx="468" cy="171" r="1"><animate attributeName="opacity" values="0.2;1;0.2" dur="4.4s" repeatCount="indefinite"/></circle><circle cx="461" cy="47" r="1"><animate attributeName="opacity" values="0.2;1;0.2" dur="2.7s" repeatCount="indefinite"/></circle><circle cx="330" cy="71" r="1"><animate attributeName="opacity" values="0.2;1;0.2" dur="4.9s" repeatCount="indefinite"/></circle><circle cx="798" cy="114" r="1"><animate attributeName="opacity" values="0.2;1;0.2" dur="3.6s" repeatCount="indefinite"/></circle><circle cx="724" cy="40" r="1"><animate attributeName="opacity" values="0.2;1;0.2" dur="2.9s" repeatCount="indefinite"/></circle><circle cx="483" cy="245" r="1"><animate attributeName="opacity" values="0.2;1;0.2" dur="2.5s" repeatCount="indefinite"/></circle><circle cx="305" cy="283" r="1"><animate attributeName="opacity" values="0.2;1;0.2" dur="4.8s" repeatCount="indefinite"/></circle><circle cx="785" cy="52" r="1"><animate attributeName="opacity" values="0.2;1;0.2" dur="2.8s" repeatCount="indefinite"/></circle><circle cx="223" cy="103" r="1"><animate attributeName="opacity" values="0.2;1;0.2" dur="2.5s" repeatCount="indefinite"/></circle><circle cx="126" cy="217" r="1"><animate attributeName="opacity" values="0.2;1;0.2" dur="2.4s" repeatCount="indefinite"/></circle><circle cx="104" cy="51" r="1"><animate attributeName="opacity" values="0.2;1;0.2" dur="3.1s" repeatCount="indefinite"/></circle><circle cx="335" cy="117" r="1"><animate attributeName="opacity" values="0.2;1;0.2" dur="2.8s" repeatCount="indefinite"/></circle><circle cx="141" cy="120" r="1"><animate attributeName="opacity" values="0.2;1;0.2" dur="3.1s" repeatCount="indefinite"/></circle><circle cx="737" cy="95" r="1"><animate attributeName="opacity" values="0.2;1;0.2" dur="3.2s" repeatCount="indefinite"/></circle><circle cx="293" cy="271" r="1"><animate attributeName="opacity" values="0.2;1;0.2" dur="3.4s" repeatCount="indefinite"/></circle><circle cx="377" cy="148" r="1"><animate attributeName="opacity" values="0.2;1;0.2" dur="3.8s" repeatCount="indefinite"/></circle><circle cx="644" cy="249" r="1"><animate attributeName="opacity" values="0.2;1;0.2" dur="4.7s" repeatCount="indefinite"/></circle><circle cx="202" cy="281" r="1"><animate attributeName="opacity" values="0.2;1;0.2" dur="4.7s" repeatCount="indefinite"/></circle><circle cx="274" cy="178" r="1"><animate attributeName="opacity" values="0.2;1;0.2" dur="3.0s" repeatCount="indefinite"/></circle><circle cx="180" cy="5" r="1"><animate attributeName="opacity" values="0.2;1;0.2" dur="3.7s" repeatCount="indefinite"/></circle><circle cx="44" cy="89" r="1"><animate attributeName="opacity" values="0.2;1;0.2" dur="2.7s" repeatCount="indefinite"/></circle><circle cx="664" cy="211" r="1"><animate attributeName="opacity" values="0.2;1;0.2" dur="4.1s" repeatCount="indefinite"/></circle><circle cx="706" cy="271" r="1"><animate attributeName="opacity" values="0.2;1;0.2" dur="3.2s" repeatCount="indefinite"/></circle><circle cx="280" cy="252" r="1"><animate attributeName="opacity" values="0.2;1;0.2" dur="2.9s" repeatCount="indefinite"/></circle><circle cx="605" cy="57" r="1"><animate attributeName="opacity" values="0.2;1;0.2" dur="2.5s" repeatCount="indefinite"/></circle><circle cx="599" cy="157" r="1"><animate attributeName="opacity" values="0.2;1;0.2" dur="2.8s" repeatCount="indefinite"/></circle><circle cx="789" cy="293" r="1"><animate attributeName="opacity" values="0.2;1;0.2" dur="4.1s" repeatCount="indefinite"/></circle><circle cx="628" cy="64" r="1"><animate attributeName="opacity" values="0.2;1;0.2" dur="2.1s" repeatCount="indefinite"/></circle><circle cx="596" cy="163" r="1"><animate attributeName="opacity" values="0.2;1;0.2" dur="2.7s" repeatCount="indefinite"/></circle><circle cx="707" cy="29" r="1"><animate attributeName="opacity" values="0.2;1;0.2" dur="2.9s" repeatCount="indefinite"/></circle><circle cx="198" cy="121" r="1"><animate attributeName="opacity" values="0.2;1;0.2" dur="3.9s" repeatCount="indefinite"/></circle><circle cx="420" cy="154" r="1"><animate attributeName="opacity" values="0.2;1;0.2" dur="3.0s" repeatCount="indefinite"/></circle><circle cx="338" cy="164" r="1"><animate attributeName="opacity" values="0.2;1;0.2" dur="2.7s" repeatCount="indefinite"/></circle><circle cx="524" cy="261" r="1"><animate attributeName="opacity" values="0.2;1;0.2" dur="4.7s" repeatCount="indefinite"/></circle><circle cx="794" cy="12" r="1"><animate attributeName="opacity" values="0.2;1;0.2" dur="3.1s" repeatCount="indefinite"/></circle><circle cx="732" cy="209" r="1"><animate attributeName="opacity" values="0.2;1;0.2" dur="2.4s" repeatCount="indefinite"/></circle><circle cx="671" cy="56" r="1"><animate attributeName="opacity" values="0.2;1;0.2" dur="4.3s" repeatCount="indefinite"/></circle><circle cx="129" cy="257" r="1"><animate attributeName="opacity" values="0.2;1;0.2" dur="2.1s" repeatCount="indefinite"/></circle><circle cx="161" cy="228" r="1"><animate attributeName="opacity" values="0.2;1;0.2" dur="2.7s" repeatCount="indefinite"/></circle><circle cx="79" cy="267" r="1"><animate attributeName="opacity" values="0.2;1;0.2" dur="3.7s" repeatCount="indefinite"/></circle><circle cx="563" cy="229" r="1"><animate attributeName="opacity" values="0.2;1;0.2" dur="2.7s" repeatCount="indefinite"/></circle><circle cx="407" cy="48" r="1"><animate attributeName="opacity" values="0.2;1;0.2" dur="3.5s" repeatCount="indefinite"/></circle><circle cx="594" cy="220" r="1"><animate attributeName="opacity" values="0.2;1;0.2" dur="4.6s" repeatCount="indefinite"/></circle><circle cx="299" cy="37" r="1"><animate attributeName="opacity" values="0.2;1;0.2" dur="4.4s" repeatCount="indefinite"/></circle><circle cx="278" cy="194" r="1"><animate attributeName="opacity" values="0.2;1;0.2" dur="4.0s" repeatCount="indefinite"/></circle><circle cx="135" cy="2" r="1"><animate attributeName="opacity" values="0.2;1;0.2" dur="2.7s" repeatCount="indefinite"/></circle><circle cx="229" cy="129" r="1"><animate attributeName="opacity" values="0.2;1;0.2" dur="2.5s" repeatCount="indefinite"/></circle><circle cx="355" cy="144" r="1"><animate attributeName="opacity" values="0.2;1;0.2" dur="4.4s" repeatCount="indefinite"/></circle><circle cx="380" cy="132" r="1"><animate attributeName="opacity" values="0.2;1;0.2" dur="3.6s" repeatCount="indefinite"/></circle><circle cx="445" cy="203" r="1"><animate attributeName="opacity" values="0.2;1;0.2" dur="3.0s" repeatCount="indefinite"/></circle><circle cx="128" cy="262" r="1"><animate attributeName="opacity" values="0.2;1;0.2" dur="4.0s" repeatCount="indefinite"/></circle><circle cx="525" cy="226" r="1"><animate attributeName="opacity" values="0.2;1;0.2" dur="4.4s" repeatCount="indefinite"/></circle><circle cx="327" cy="285" r="1"><animate attributeName="opacity" values="0.2;1;0.2" dur="3.3s" repeatCount="indefinite"/></circle><circle cx="424" cy="273" r="1"><animate attributeName="opacity" values="0.2;1;0.2" dur="3.6s" repeatCount="indefinite"/></circle><circle cx="517" cy="13" r="1"><animate attributeName="opacity" values="0.2;1;0.2" dur="2.2s" repeatCount="indefinite"/></circle><circle cx="506" cy="99" r="1"><animate attributeName="opacity" values="0.2;1;0.2" dur="2.4s" repeatCount="indefinite"/></circle><circle cx="790" cy="254" r="1"><animate attributeName="opacity" values="0.2;1;0.2" dur="4.8s" repeatCount="indefinite"/></circle><circle cx="786" cy="112" r="1"><animate attributeName="opacity" values="0.2;1;0.2" dur="4.7s" repeatCount="indefinite"/></circle><circle cx="628" cy="259" r="1"><animate attributeName="opacity" values="0.2;1;0.2" dur="3.5s" repeatCount="indefinite"/></circle><circle cx="38" cy="6" r="1"><animate attributeName="opacity" values="0.2;1;0.2" dur="4.7s" repeatCount="indefinite"/></circle><circle cx="290" cy="93" r="1"><animate attributeName="opacity" values="0.2;1;0.2" dur="3.6s" repeatCount="indefinite"/></circle><circle cx="103" cy="68" r="1"><animate attributeName="opacity" values="0.2;1;0.2" dur="3.3s" repeatCount="indefinite"/></circle><circle cx="785" cy="71" r="1"><animate attributeName="opacity" values="0.2;1;0.2" dur="3.0s" repeatCount="indefinite"/></circle><circle cx="415" cy="120" r="1"><animate attributeName="opacity" values="0.2;1;0.2" dur="3.7s" repeatCount="indefinite"/></circle><circle cx="432" cy="199" r="1"><animate attributeName="opacity" values="0.2;1;0.2" dur="2.8s" repeatCount="indefinite"/></circle><circle cx="401" cy="58" r="1"><animate attributeName="opacity" values="0.2;1;0.2" dur="4.0s" repeatCount="indefinite"/></circle><circle cx="154" cy="248" r="1"><animate attributeName="opacity" values="0.2;1;0.2" dur="4.0s" repeatCount="indefinite"/></circle><circle cx="150" cy="28" r="1"><animate attributeName="opacity" values="0.2;1;0.2" dur="3.3s" repeatCount="indefinite"/></circle><circle cx="622" cy="6" r="1"><animate attributeName="opacity" values="0.2;1;0.2" dur="3.0s" repeatCount="indefinite"/></circle><circle cx="36" cy="9" r="1"><animate attributeName="opacity" values="0.2;1;0.2" dur="2.2s" repeatCount="indefinite"/></circle><circle cx="383" cy="212" r="1"><animate attributeName="opacity" values="0.2;1;0.2" dur="2.3s" repeatCount="indefinite"/></circle><circle cx="528" cy="19" r="1"><animate attributeName="opacity" values="0.2;1;0.2" dur="4.3s" repeatCount="indefinite"/></circle><circle cx="600" cy="261" r="1"><animate attributeName="opacity" values="0.2;1;0.2" dur="2.8s" repeatCount="indefinite"/></circle><circle cx="660" cy="201" r="1"><animate attributeName="opacity" values="0.2;1;0.2" dur="4.1s" repeatCount="indefinite"/></circle></g><g filter="url(#g)"><text x="20" y="24" fill="#55ff55" font-family="monospace" font-size="18">SCORE 000000   HI 999999</text><g><animateTransform attributeName="transform" type="translate" values="0,0;180,0;180,18;0,18;0,0" dur="8s" repeatCount="indefinite"/><use href="#alien" x="120" y="40"/><use href="#alien" x="170" y="40"/><use href="#alien" x="220" y="40"/><use href="#alien" x="270" y="40"/><use href="#alien" x="320" y="40"/><use href="#alien" x="370" y="40"/><use href="#alien" x="420" y="40"/><use href="#alien" x="470" y="40"/><use href="#alien" x="120" y="75"/><use href="#alien" x="170" y="75"/><use href="#alien" x="220" y="75"/><use href="#alien" x="270" y="75"/><use href="#alien" x="320" y="75"/><use href="#alien" x="370" y="75"/><use href="#alien" x="420" y="75"/><use href="#alien" x="470" y="75"/><use href="#alien" x="120" y="110"/><use href="#alien" x="170" y="110"/><use href="#alien" x="220" y="110"/><use href="#alien" x="270" y="110"/><use href="#alien" x="320" y="110"/><use href="#alien" x="370" y="110"/><use href="#alien" x="420" y="110"/><use href="#alien" x="470" y="110"/></g><g id="shipg"><animateTransform attributeName="transform" type="translate" values="100,250;650,250;100,250" dur="8s" repeatCount="indefinite"/><use href="#ship"/><rect x="13" y="-120" width="2" height="120" fill="#0ff"><animate attributeName="opacity" values="0;0;1;1;0;0" dur="8s" repeatCount="indefinite" keyTimes="0;0.2;0.25;0.35;0.36;1"/></rect></g><g transform="translate(270,58)" opacity="0"><set attributeName="opacity" to="1" begin="2s" dur="0.3s"/><animateTransform attributeName="transform" type="scale" from="1" to="3" begin="2s" dur="0.3s"/><use href="#boom"/></g><g transform="translate(420,93)" opacity="0"><set attributeName="opacity" to="1" begin="4.5s" dur="0.3s"/><animateTransform attributeName="transform" type="scale" from="1" to="3" begin="4.5s" dur="0.3s"/><use href="#boom"/></g><g transform="translate(170,128)" opacity="0"><set attributeName="opacity" to="1" begin="6.5s" dur="0.3s"/><animateTransform attributeName="transform" type="scale" from="1" to="3" begin="6.5s" dur="0.3s"/><use href="#boom"/></g></g><rect width="100%" height="100%" fill="url(#scan)"/></svg>